<?xml version="1.0" encoding="utf-8"?>
<!-- Generator: Adobe Illustrator 16.0.0, SVG Export Plug-In . SVG Version: 6.00 Build 0)  -->
<!DOCTYPE svg PUBLIC "-//W3C//DTD SVG 1.1//EN" "http://www.w3.org/Graphics/SVG/1.1/DTD/svg11.dtd">
<svg version="1.1" id="Layer_1" xmlns="http://www.w3.org/2000/svg" xmlns:xlink="http://www.w3.org/1999/xlink" x="0px" y="0px"
	 width="107.488px" height="117.271px" viewBox="0 0 107.488 117.271" enable-background="new 0 0 107.488 117.271"
	 xml:space="preserve">
<g id="rugby">
	<g id="dark">
		<path fill="#5E9942" d="M54.157,50.968C36.261,60.624,18.515,64.991,2.251,66.065c-5.65,23.307,0.552,43.504,5.368,47.578
			c6.655,5.633,48.518,8.719,77.584-25.635c27.588-32.606,24.024-67.721,18.231-80.377C92.724,23.175,76.897,38.697,54.157,50.968z"
			/>
	</g>
	<g id="light">
		<path fill="#AECA39" d="M103.435,7.631c-0.921-2.013-1.898-3.461-2.815-4.237C93.566-2.575,51.487-5.37,19.511,32.416
			c-9.309,11-14.598,22.669-17.259,33.65c16.264-1.074,34.009-5.441,51.906-15.098C76.897,38.697,92.724,23.175,103.435,7.631z"/>
	</g>
</g>
</svg>
