<?xml version="1.0" encoding="utf-8"?>
<!-- Generator: Adobe Illustrator 16.0.0, SVG Export Plug-In . SVG Version: 6.00 Build 0)  -->
<!DOCTYPE svg PUBLIC "-//W3C//DTD SVG 1.1//EN" "http://www.w3.org/Graphics/SVG/1.1/DTD/svg11.dtd">
<svg version="1.1" id="Layer_1" xmlns="http://www.w3.org/2000/svg" xmlns:xlink="http://www.w3.org/1999/xlink" x="0px" y="0px"
	 width="347px" height="125px" viewBox="0 0 347 125" enable-background="new 0 0 347 125" xml:space="preserve">
<g id="form">
	<g id="rugby">
		<g id="dark">
			<path fill="#5E9942" d="M87.988,54.968c-17.896,9.656-35.642,14.023-51.906,15.098c-5.65,23.307,0.552,43.504,5.368,47.578
				c6.655,5.633,48.518,8.719,77.584-25.635c27.588-32.606,24.024-67.721,18.231-80.377
				C126.555,27.175,110.729,42.697,87.988,54.968z"/>
		</g>
		<g id="light">
			<path fill="#AECA39" d="M137.266,11.631c-0.921-2.013-1.898-3.461-2.815-4.237c-7.053-5.969-49.131-8.764-81.108,29.021
				c-9.309,11-14.598,22.669-17.259,33.65c16.264-1.074,34.009-5.441,51.906-15.098C110.729,42.697,126.555,27.175,137.266,11.631z"
				/>
		</g>
	</g>
	<g id="around">
		<path id="right" fill="#5E9942" d="M27.292,91.044c-7.737-3.439-12.015-7.207-12.015-11.158c0-3.343,3.063-6.555,8.688-9.547
			C11.261,74.898,4.05,80.105,4.05,85.636c0,6.029,8.569,11.674,23.484,16.513C27.242,98.663,27.141,94.942,27.292,91.044z"/>
		<path id="left" fill="#5E9942" d="M329.262,72.822c3.056,2.263,4.688,4.628,4.688,7.063c0,16.154-71.337,29.25-159.336,29.25
			c-19.365,0-37.921-0.635-55.089-1.796c-3.375,3.13-6.84,5.909-10.352,8.37c19.836,1.562,41.554,2.426,64.327,2.426
			c93.585,0,169.45-14.551,169.45-32.5C342.95,81.085,338.066,76.754,329.262,72.822z"/>
	</g>
</g>
<g id="text">
	<g id="so">
		<path id="s" fill="none" stroke="#FFFFFF" stroke-width="8" stroke-miterlimit="10" d="M80.858,45.411V41.63
			c0-4.05-3.467-7.561-9-7.561c-7.403,0-8.45,4.624-8.437,10.206c0.011,4.995,5.887,10.683,8.987,13.501
			c2.582,2.347,7.875,8.083,7.875,13.5c0,5.418-2.123,10.126-8.425,10.126c-4.32,0-9-2.036-9-7.636v-3.781"/>
		<g id="o_1_">
			<path fill="#FFFFFF" d="M100.292,56.228h-1.167c-6.627,0-12,5.373-12,12v5.334c0,6.627,5.373,12,12,12h1.167
				c6.627,0,12-5.373,12-12v-5.334C112.292,61.6,106.919,56.228,100.292,56.228z M103.985,73.396c0,2.765-1.915,5.006-4.277,5.006
				c-2.361,0-4.276-2.241-4.276-5.006v-5.005c0-2.765,1.915-5.006,4.276-5.006c2.362,0,4.277,2.241,4.277,5.006V73.396z"/>
		</g>
	</g>
	<g id="libre">
		<path id="l" fill="#544F46" d="M159.721,75.479c-1-1.332-1.167-4.5-1.167-4.5V32.145h-9.999v39c0,0,0.308,6.629,3.78,10.389
			c3.75,4.061,9.386,4.279,9.386,4.279h16.501v-8.834h-14.333C163.889,76.979,160.721,76.812,159.721,75.479z"/>
		<polygon id="i" fill="#544F46" points="182.725,85.811 192.725,85.811 192.725,57.811 182.725,60.811 		"/>
		<path id="b" fill="#544F46" d="M206.281,59.158V45.458h-10v40.355h8.5v-2.491c0,0,21.25,6.228,30-1.494
			c5.564-4.91,4.984-15.215,0-21.174C228.531,53.18,206.281,59.158,206.281,59.158z M226.471,75.812c-3.25,2.75-20,0-20,0v-9.25
			c0,0,17.75-2.25,20,0S229.721,73.062,226.471,75.812z"/>
		<path id="r" fill="#544F46" d="M262.195,56.71c-5,0-19.875,2.104-19.875,2.104v26.685h9.5V65.517c0,0,8.252-2.035,10.061-2.225
			c0.685-0.072,1.974-0.107,1.974-0.107l0.216-6.475C263.635,56.71,263.039,56.71,262.195,56.71z"/>
		<circle id="point" fill="#E66225" cx="187.725" cy="50.815" r="5.357"/>
		<path id="e" fill="#544F46" d="M300.77,61.517c-4-5-15.781-5-15.781-5s-11.969,0-16.344,4.5
			c-3.314,3.411-3.328,10.217-3.328,10.217s-1.086,7.988,4.334,11.75c3.785,2.625,15.266,2.51,15.266,2.51s8.895,0.182,16.02-1.75
			l0.199-5.234c0,0-18.082,1.998-24.158,0.652c-3.254-0.721-2.967-5.666-2.967-5.666h22.785h5.107h1.447
			C303.35,73.496,304.678,66.404,300.77,61.517z M284.398,64.01c0,0,8.244-0.417,11.064,2.713c0.396,0.441,0.658,0.912,0.861,1.371
			h-21.996c0.217-0.502,0.496-0.975,0.98-1.418C278.309,63.926,284.398,64.01,284.398,64.01z"/>
	</g>
</g>
</svg>
